<svg width="141" height="140" viewBox="0 0 141 140" fill="none" xmlns="http://www.w3.org/2000/svg">
<path d="M105.401 70.0568C107.462 62.1705 102.743 54.0955 94.8601 52.0206L33.7843 35.9446C25.9016 33.8698 17.8406 38.5809 15.7795 46.4671L0.483451 104.993C-1.57767 112.879 3.14161 120.954 11.0243 123.029L72.1001 139.105C79.9828 141.18 88.0438 136.468 90.1049 128.582L105.401 70.0568Z" fill="white"/>
<circle cx="121.869" cy="18.728" r="16.7271" fill="#41CC96"/>
<path d="M114.414 55.3984L105.318 53.4965C104.785 51.6324 104.06 49.8491 103.155 48.1759L108.216 40.4374C108.852 39.4641 108.701 37.9955 107.879 37.1718L103.552 32.8451C102.73 32.0231 101.26 31.8701 100.288 32.5081L92.6102 37.5295C90.9129 36.5888 89.1004 35.8305 87.2002 35.275L85.3257 26.3122C85.0884 25.1738 83.9414 24.2417 82.7789 24.2417H76.6587C75.4962 24.2417 74.3492 25.1738 74.1119 26.3122L72.2374 35.275C70.3372 35.8305 68.5264 36.5888 66.8274 37.5295L59.1509 32.5081C58.1775 31.8718 56.709 32.0231 55.887 32.8451L51.5603 37.1718C50.7383 37.9938 50.587 39.4641 51.2215 40.4357L56.2825 48.1741C55.3779 49.8474 54.6522 51.6307 54.1192 53.4965L45.0239 55.3984C43.8855 55.6357 42.9534 56.7827 42.9534 57.9452V64.0638C42.9534 65.2263 43.8855 66.3733 45.0239 66.6106L54.2223 68.5349C54.7657 70.3371 55.4932 72.0584 56.3874 73.6766L51.2215 81.5733C50.5853 82.5466 50.7366 84.0152 51.5586 84.8389L55.8852 89.1656C56.7072 89.9876 58.1775 90.1406 59.1491 89.5026L67.1094 84.2955C68.7018 85.1536 70.394 85.8484 72.1601 86.3711L74.1119 95.6986C74.3492 96.837 75.4962 97.769 76.6587 97.769H82.7789C83.9414 97.769 85.0884 96.837 85.3257 95.6986L87.2775 86.3711C89.0436 85.8484 90.7358 85.1536 92.3282 84.2955L100.288 89.5026C101.262 90.1389 102.73 89.9876 103.552 89.1656L107.879 84.8389C108.701 84.0169 108.854 82.5483 108.218 81.575L103.054 73.6784C103.946 72.0602 104.674 70.3388 105.219 68.5366L114.417 66.6123C115.556 66.375 116.486 65.228 116.486 64.0655V57.947C116.486 56.7845 115.554 55.6375 114.417 55.4001L114.414 55.3984ZM79.7179 75.6027C71.6562 75.6027 65.1232 69.068 65.1232 61.0079C65.1232 52.9479 71.6579 46.4132 79.7179 46.4132C87.778 46.4132 94.3127 52.9479 94.3127 61.0079C94.3127 69.068 87.778 75.6027 79.7179 75.6027Z" fill="#D3E2EB"/>
<path d="M79.7176 75.6025C87.778 75.6025 94.3123 69.0682 94.3123 61.0078C94.3123 52.9474 87.778 46.4131 79.7176 46.4131C71.6571 46.4131 65.1228 52.9474 65.1228 61.0078C65.1228 69.0682 71.6571 75.6025 79.7176 75.6025Z" fill="#41CC96"/>
<path d="M79.7177 11.7952C82.4226 11.7952 84.6153 9.60244 84.6153 6.89758C84.6153 4.19272 82.4226 2 79.7177 2C77.0129 2 74.8201 4.19272 74.8201 6.89758C74.8201 9.60244 77.0129 11.7952 79.7177 11.7952Z" fill="#82A5D1"/>
<path d="M79.7177 120.013C82.4226 120.013 84.6153 117.82 84.6153 115.115C84.6153 112.41 82.4226 110.218 79.7177 110.218C77.0129 110.218 74.8201 112.41 74.8201 115.115C74.8201 117.82 77.0129 120.013 79.7177 120.013Z" fill="#82A5D1"/>
<path d="M25.6084 65.904C28.3133 65.904 30.506 63.7113 30.506 61.0065C30.506 58.3016 28.3133 56.1089 25.6084 56.1089C22.9036 56.1089 20.7109 58.3016 20.7109 61.0065C20.7109 63.7113 22.9036 65.904 25.6084 65.904Z" fill="#82A5D1"/>
<path d="M133.827 65.904C136.532 65.904 138.724 63.7113 138.724 61.0065C138.724 58.3016 136.532 56.1089 133.827 56.1089C131.122 56.1089 128.929 58.3016 128.929 61.0065C128.929 63.7113 131.122 65.904 133.827 65.904Z" fill="#82A5D1"/>
<path d="M41.4562 104.165C44.1611 104.165 46.3538 101.972 46.3538 99.2672C46.3538 96.5624 44.1611 94.3696 41.4562 94.3696C38.7513 94.3696 36.5586 96.5624 36.5586 99.2672C36.5586 101.972 38.7513 104.165 41.4562 104.165Z" fill="#82A5D1"/>
<path d="M117.978 27.6423C120.683 27.6423 122.876 25.4496 122.876 22.7447C122.876 20.0399 120.683 17.8472 117.978 17.8472C115.274 17.8472 113.081 20.0399 113.081 22.7447C113.081 25.4496 115.274 27.6423 117.978 27.6423Z" fill="#82A5D1"/>
<path d="M41.4566 27.6428C44.1615 27.6428 46.3542 25.4501 46.3542 22.7452C46.3542 20.0404 44.1615 17.8477 41.4566 17.8477C38.7518 17.8477 36.559 20.0404 36.559 22.7452C36.559 25.4501 38.7518 27.6428 41.4566 27.6428Z" fill="#82A5D1"/>
<path d="M117.978 104.164C120.683 104.164 122.876 101.972 122.876 99.2667C122.876 96.5619 120.683 94.3691 117.978 94.3691C115.273 94.3691 113.081 96.5619 113.081 99.2667C113.081 101.972 115.273 104.164 117.978 104.164Z" fill="#82A5D1"/>
<path d="M73.8017 60.7946L79.5127 66.5056L95.404 50.6143" stroke="#23549A" stroke-width="2.86749" stroke-linecap="round" stroke-linejoin="round"/>
<path d="M79.7175 18.3311V11.7964" stroke="#23549A" stroke-width="2.86749" stroke-linecap="round" stroke-linejoin="round"/>
<path d="M79.7172 11.7952C82.4221 11.7952 84.6148 9.60244 84.6148 6.89758C84.6148 4.19272 82.4221 2 79.7172 2C77.0124 2 74.8197 4.19272 74.8197 6.89758C74.8197 9.60244 77.0124 11.7952 79.7172 11.7952Z" stroke="#23549A" stroke-width="2.86749" stroke-linecap="round" stroke-linejoin="round"/>
<path d="M79.7175 103.683V110.218" stroke="#23549A" stroke-width="2.86749" stroke-linecap="round" stroke-linejoin="round"/>
<path d="M79.7172 120.013C82.422 120.013 84.6148 117.82 84.6148 115.115C84.6148 112.41 82.422 110.218 79.7172 110.218C77.0123 110.218 74.8196 112.41 74.8196 115.115C74.8196 117.82 77.0123 120.013 79.7172 120.013Z" stroke="#23549A" stroke-width="2.86749" stroke-linecap="round" stroke-linejoin="round"/>
<path d="M37.0409 61.0059H30.5062" stroke="#23549A" stroke-width="2.86749" stroke-linecap="round" stroke-linejoin="round"/>
<path d="M25.6082 65.9045C28.313 65.9045 30.5058 63.7118 30.5058 61.007C30.5058 58.3021 28.313 56.1094 25.6082 56.1094C22.9033 56.1094 20.7106 58.3021 20.7106 61.007C20.7106 63.7118 22.9033 65.9045 25.6082 65.9045Z" stroke="#23549A" stroke-width="2.86749" stroke-linecap="round" stroke-linejoin="round"/>
<path d="M122.394 61.0059H128.929" stroke="#23549A" stroke-width="2.86749" stroke-linecap="round" stroke-linejoin="round"/>
<path d="M133.826 65.9045C136.531 65.9045 138.724 63.7118 138.724 61.007C138.724 58.3021 136.531 56.1094 133.826 56.1094C131.121 56.1094 128.929 58.3021 128.929 61.007C128.929 63.7118 131.121 65.9045 133.826 65.9045Z" stroke="#23549A" stroke-width="2.86749" stroke-linecap="round" stroke-linejoin="round"/>
<path d="M49.5405 91.1816L44.9198 95.8041" stroke="#23549A" stroke-width="2.86749" stroke-linecap="round" stroke-linejoin="round"/>
<path d="M41.4562 104.164C44.1611 104.164 46.3538 101.971 46.3538 99.2662C46.3538 96.5614 44.1611 94.3687 41.4562 94.3687C38.7514 94.3687 36.5587 96.5614 36.5587 99.2662C36.5587 101.971 38.7514 104.164 41.4562 104.164Z" stroke="#23549A" stroke-width="2.86749" stroke-linecap="round" stroke-linejoin="round"/>
<path d="M109.894 30.8297L114.516 26.209" stroke="#23549A" stroke-width="2.86749" stroke-linecap="round" stroke-linejoin="round"/>
<path d="M117.978 27.6423C120.683 27.6423 122.875 25.4496 122.875 22.7447C122.875 20.0399 120.683 17.8472 117.978 17.8472C115.273 17.8472 113.08 20.0399 113.08 22.7447C113.08 25.4496 115.273 27.6423 117.978 27.6423Z" stroke="#23549A" stroke-width="2.86749" stroke-linecap="round" stroke-linejoin="round"/>
<path d="M49.5409 30.8292L44.9202 26.2085" stroke="#23549A" stroke-width="2.86749" stroke-linecap="round" stroke-linejoin="round"/>
<path d="M41.457 27.6428C44.1619 27.6428 46.3546 25.4501 46.3546 22.7452C46.3546 20.0404 44.1619 17.8477 41.457 17.8477C38.7522 17.8477 36.5594 20.0404 36.5594 22.7452C36.5594 25.4501 38.7522 27.6428 41.457 27.6428Z" stroke="#23549A" stroke-width="2.86749" stroke-linecap="round" stroke-linejoin="round"/>
<path d="M109.894 91.1826L114.517 95.8051" stroke="#23549A" stroke-width="2.86749" stroke-linecap="round" stroke-linejoin="round"/>
<path d="M117.978 104.164C120.683 104.164 122.876 101.972 122.876 99.2667C122.876 96.5619 120.683 94.3691 117.978 94.3691C115.273 94.3691 113.081 96.5619 113.081 99.2667C113.081 101.972 115.273 104.164 117.978 104.164Z" stroke="#23549A" stroke-width="2.86749" stroke-linecap="round" stroke-linejoin="round"/>
<path d="M93.1663 55.1537C93.904 56.8992 94.3133 58.82 94.3133 60.8354C94.3133 68.8955 87.7786 75.4302 79.7186 75.4302C71.6585 75.4302 65.1238 68.8955 65.1238 60.8354C65.1238 52.7754 71.6585 46.2407 79.7186 46.2407C82.7417 46.2407 85.5499 47.159 87.8783 48.7342" stroke="#23549A" stroke-width="2.86749" stroke-linecap="round" stroke-linejoin="round"/>
<path d="M45.0211 66.6133L54.2196 68.5375C54.763 70.3397 55.4904 72.0594 56.3829 73.6793L51.2171 81.576C50.5808 82.5493 50.7321 84.0179 51.5541 84.8399L55.8808 89.1665C56.7028 89.9885 58.1714 90.1416 59.1447 89.5036L67.105 84.2965C68.6974 85.1546 70.3895 85.8493 72.1556 86.3721L74.1074 95.6995C74.3447 96.8379 75.4917 97.77 76.6542 97.77H82.7727C83.9352 97.77 85.0822 96.8379 85.3196 95.6995L87.2714 86.3721C89.0374 85.8493 90.7296 85.1546 92.322 84.2965L100.282 89.5036C101.256 90.1399 102.724 89.9885 103.546 89.1665L107.873 84.8399C108.695 84.0179 108.848 82.5493 108.21 81.576L103.046 73.6793C103.938 72.0611 104.666 70.3397 105.209 68.5375L114.408 66.6133C115.546 66.3742 116.476 65.2289 116.476 64.0664V57.9479C116.476 56.7854 115.544 55.6384 114.408 55.4011L105.312 53.4992C104.779 51.6351 104.053 49.8518 103.149 48.1785L108.21 40.4401C108.846 39.4668 108.695 37.9982 107.873 37.1762L103.546 32.8495C102.724 32.0275 101.256 31.8745 100.282 32.5125L92.604 37.5339C90.9067 36.5932 89.0942 35.8349 87.194 35.2794L85.3196 26.3166C85.0822 25.1781 83.9352 24.2461 82.7727 24.2461H76.6542C75.4917 24.2461 74.3447 25.1781 74.1074 26.3166L72.233 35.2794C70.3328 35.8349 68.522 36.5932 66.8229 37.5339L59.1464 32.5125C58.1731 31.8762 56.7045 32.0275 55.8825 32.8495L51.5558 37.1762C50.7338 37.9982 50.5808 39.4668 51.2188 40.4401L56.2797 48.1785C55.3735 49.8518 54.6495 51.635 54.1164 53.5009L45.0211 55.4028C43.8827 55.6401 42.9507 56.7871 42.9507 57.9496V64.0682C42.9507 65.2306 43.8827 66.3777 45.0211 66.615V66.6133Z" stroke="#23549A" stroke-width="2.86749" stroke-linecap="round" stroke-linejoin="round"/>
<path d="M93.1671 55.1537C93.9049 56.8992 94.3142 58.82 94.3142 60.8354C94.3142 68.8955 87.7795 75.4302 79.7194 75.4302C71.6594 75.4302 65.1247 68.8955 65.1247 60.8354C65.1247 52.7754 71.6594 46.2407 79.7194 46.2407C82.7426 46.2407 85.5508 47.159 87.8792 48.7342" stroke="#23549A" stroke-width="2.86749" stroke-linecap="round" stroke-linejoin="round"/>
</svg>
