<svg width="140" height="129" viewBox="0 0 140 129" fill="none" xmlns="http://www.w3.org/2000/svg">
<path d="M105.833 48.0821C107.894 40.1959 103.174 32.1208 95.2918 30.046L34.2159 13.97C26.3333 11.8952 18.2722 16.6063 16.2111 24.4925L0.915092 83.018C-1.14603 90.9042 3.57325 98.9793 11.4559 101.054L72.5317 117.13C80.4144 119.205 88.4754 114.494 90.5366 106.608L105.833 48.0821Z" fill="#83EEA7"/>
<circle cx="122.3" cy="111.454" r="16.7271" fill="#604B8C"/>
<path d="M36.0492 55.5722L47.6088 57.9904C48.2917 60.2552 49.2059 62.4163 50.3275 64.452L43.8356 74.3757C43.036 75.5989 43.2262 77.4445 44.2592 78.4775L49.6964 83.9147C50.7294 84.9477 52.575 85.1401 53.7982 84.3383L63.8018 77.7946C65.803 78.8729 67.9295 79.746 70.1489 80.403L72.6017 92.1247C72.9 93.5553 74.3414 94.7266 75.8023 94.7266H83.4914C84.9523 94.7266 86.3938 93.5553 86.692 92.1247L89.1448 80.403C91.3642 79.746 93.4908 78.8729 95.4919 77.7946L105.496 84.3383C106.719 85.1379 108.564 84.9477 109.597 83.9147L115.035 78.4775C116.068 77.4445 116.26 75.5989 115.458 74.3757L108.968 64.452C110.09 62.4185 111.004 60.2552 111.687 57.9904L123.247 55.5722C124.677 55.2718 125.846 53.8325 125.846 52.3716V44.6825C125.846 43.2216 124.675 41.7801 123.247 41.4819L111.817 39.0917C111.147 36.7491 110.235 34.5081 109.098 32.4054L115.458 22.6805C116.258 21.4573 116.068 19.6118 115.035 18.5788L109.597 13.1415C108.564 12.1085 106.719 11.9161 105.496 12.7179L95.8463 19.0283C93.7133 17.8462 91.4356 16.8931 89.0476 16.1951L86.692 4.93153C86.3938 3.5009 84.9523 2.32959 83.4914 2.32959H75.8023C74.3414 2.32959 72.9 3.5009 72.6017 4.93153L70.2462 16.1951C67.8582 16.8931 65.5826 17.8462 63.4474 19.0283L53.8003 12.7179C52.5772 11.9183 50.7316 12.1085 49.6986 13.1415L44.2613 18.5788C43.2283 19.6118 43.036 21.4573 43.8377 22.6805L50.1978 32.4054C49.0589 34.5081 48.1491 36.7491 47.4792 39.0939L36.0492 41.4841C34.6186 41.7823 33.4473 43.2237 33.4473 44.6846V52.3738C33.4473 53.8346 34.6186 55.2761 36.0492 55.5743V55.5722Z" fill="white"/>
<path d="M95.1676 32.3062H64.1345C61.5159 32.3062 59.3931 34.429 59.3931 37.0476V60.5148C59.3931 63.1334 61.5159 65.2562 64.1345 65.2562H95.1676C97.7862 65.2562 99.909 63.1334 99.909 60.5148V37.0476C99.909 34.429 97.7862 32.3062 95.1676 32.3062Z" fill="#41CC96"/>
<path d="M99.909 37.0476V42.9257C99.909 46.1608 97.2876 48.7822 94.0525 48.7822H65.2496C62.0145 48.7822 59.3931 46.1608 59.3931 42.9257V37.0476C59.3931 34.4305 61.5152 32.3062 64.1345 32.3062H95.1698C97.7868 32.3062 99.9112 34.4283 99.9112 37.0476" fill="#BEEFD9"/>
<path d="M36.0492 55.5722L47.6088 57.9904C48.2917 60.2552 49.2059 62.4163 50.3275 64.452L43.8356 74.3757C43.036 75.5989 43.2262 77.4445 44.2592 78.4775L49.6964 83.9147C50.7294 84.9477 52.575 85.1401 53.7982 84.3383L63.8018 77.7946C65.803 78.8729 67.9295 79.746 70.1489 80.403L72.6017 92.1247C72.9 93.5553 74.3414 94.7266 75.8023 94.7266H83.4914C84.9523 94.7266 86.3938 93.5553 86.692 92.1247L89.1448 80.403C91.3642 79.746 93.4908 78.8729 95.4919 77.7946L105.496 84.3383C106.719 85.1379 108.564 84.9477 109.597 83.9147L115.035 78.4775C116.068 77.4445 116.26 75.5989 115.458 74.3757L108.968 64.452C110.09 62.4185 111.004 60.2552 111.687 57.9904L123.247 55.5722C124.677 55.2718 125.846 53.8325 125.846 52.3716V44.6825C125.846 43.2216 124.675 41.7801 123.247 41.4819L111.817 39.0917C111.147 36.7491 110.235 34.5081 109.098 32.4054L115.458 22.6805C116.258 21.4573 116.068 19.6118 115.035 18.5788L109.597 13.1415C108.564 12.1085 106.719 11.9161 105.496 12.7179L95.8463 19.0283C93.7133 17.8462 91.4356 16.8931 89.0476 16.1951L86.692 4.93153C86.3938 3.5009 84.9523 2.32959 83.4914 2.32959H75.8023C74.3414 2.32959 72.9 3.5009 72.6017 4.93153L70.2462 16.1951C67.8582 16.8931 65.5826 17.8462 63.4474 19.0283L53.8003 12.7179C52.5772 11.9183 50.7316 12.1085 49.6986 13.1415L44.2613 18.5788C43.2283 19.6118 43.036 21.4573 43.8377 22.6805L50.1978 32.4054C49.0589 34.5081 48.1491 36.7491 47.4792 39.0939L36.0492 41.4841C34.6186 41.7823 33.4473 43.2237 33.4473 44.6846V52.3738C33.4473 53.8346 34.6186 55.2761 36.0492 55.5743V55.5722Z" stroke="#604B8C" stroke-width="2.86749" stroke-linecap="round" stroke-linejoin="round"/>
<path d="M95.1676 32.3062H64.1345C61.5159 32.3062 59.3931 34.429 59.3931 37.0476V60.5148C59.3931 63.1334 61.5159 65.2562 64.1345 65.2562H95.1676C97.7862 65.2562 99.909 63.1334 99.909 60.5148V37.0476C99.909 34.429 97.7862 32.3062 95.1676 32.3062Z" stroke="#604B8C" stroke-width="2.86749" stroke-linecap="round" stroke-linejoin="round"/>
<path d="M99.909 37.0474V42.9255C99.909 46.1606 97.2876 48.782 94.0525 48.782H65.2496C62.0145 48.782 59.3931 46.1606 59.3931 42.9255V37.0474" stroke="#604B8C" stroke-width="2.86749" stroke-linecap="round" stroke-linejoin="round"/>
<path d="M71.5664 32.3065V27.9346C71.5664 25.7865 73.3082 24.0425 75.4585 24.0425H82.8732C85.0213 24.0425 86.7653 25.7843 86.7653 27.9346V32.3065" stroke="#604B8C" stroke-width="2.86749" stroke-linecap="round" stroke-linejoin="round"/>
<path d="M77.4526 42.9146H81.8461" stroke="#604B8C" stroke-width="2.86749" stroke-linecap="round" stroke-linejoin="round"/>
<path d="M68.5605 48.7822V65.2562" stroke="#604B8C" stroke-width="2.86749" stroke-linecap="round" stroke-linejoin="round"/>
<path d="M74.2114 48.7817V65.2557" stroke="#604B8C" stroke-width="2.86749" stroke-linecap="round" stroke-linejoin="round"/>
<path d="M85.0908 48.7817V65.2557" stroke="#604B8C" stroke-width="2.86749" stroke-linecap="round" stroke-linejoin="round"/>
<path d="M90.7397 48.7812V65.2552" stroke="#604B8C" stroke-width="2.86749" stroke-linecap="round" stroke-linejoin="round"/>
</svg>
