<svg width="123" height="133" viewBox="0 0 123 133" fill="none" xmlns="http://www.w3.org/2000/svg">
<path d="M106.356 63.3292C108.417 55.443 103.698 47.3679 95.8155 45.2931L34.7396 29.2171C26.857 27.1423 18.7959 31.8534 16.7348 39.7396L1.43877 98.265C-0.622352 106.151 4.09693 114.226 11.9796 116.301L73.0554 132.377C80.9381 134.452 88.9991 129.741 91.0603 121.855L106.356 63.3292Z" fill="#CCBDF1"/>
<circle cx="105.3" cy="16.7798" r="16.7271" fill="#CCBDF1"/>
<path d="M87.8588 81.998H14.459V123.033H87.8588V81.998Z" stroke="#604B8C" stroke-width="2.86749" stroke-linecap="round" stroke-linejoin="round"/>
<path d="M60.4171 81.9967L51.1589 72.7197L41.9007 81.9967L51.1589 91.2736L60.4171 81.9967Z" fill="#BEEFD9"/>
<path d="M51.1595 131.342C55.7392 131.342 59.4517 127.622 59.4517 123.033C59.4517 118.444 55.7392 114.724 51.1595 114.724C46.5798 114.724 42.8672 118.444 42.8672 123.033C42.8672 127.622 46.5798 131.342 51.1595 131.342Z" fill="#BEEFD9"/>
<path d="M21.5823 95.373H7.33301V109.651H21.5823V95.373Z" fill="white"/>
<path d="M101.31 95.373H74.406V109.651H101.31V95.373Z" fill="#83EEA7"/>
<path d="M73.0986 39.5873L67.3484 38.3811C67.0112 37.1997 66.552 36.0701 65.9791 35.009L69.1789 30.1052C69.5823 29.4876 69.485 28.557 68.9659 28.0367L66.2294 25.2947C65.7102 24.7745 64.7794 24.6771 64.1651 25.0812L59.3105 28.2627C58.237 27.6657 57.0911 27.1849 55.8893 26.8346L54.7041 21.1557C54.5532 20.4344 53.8292 19.8438 53.0929 19.8438H49.2228C48.4886 19.8438 47.7625 20.4344 47.6116 21.1557L46.4263 26.8346C45.2246 27.187 44.0787 27.6657 43.0052 28.2627L38.1506 25.0812C37.5342 24.6771 36.6055 24.7745 36.0863 25.2947L33.3498 28.0367C32.8307 28.557 32.7334 29.4896 33.1368 30.1052L36.3366 35.0069C35.7637 36.066 35.3066 37.1976 34.9673 38.379L29.2151 39.5853C28.4953 39.7366 27.9058 40.462 27.9058 41.1998V45.0777C27.9058 45.8134 28.4953 46.5409 29.2151 46.6922L35.0315 47.9109C35.3748 49.0529 35.8361 50.1431 36.4007 51.169L33.1347 56.1723C32.7314 56.7899 32.8286 57.7205 33.3478 58.2407L36.0843 60.9828C36.6034 61.503 37.5342 61.6004 38.1486 61.1963L43.1831 57.8967C44.1904 58.4397 45.2598 58.8812 46.3767 59.2107L47.6116 65.1218C47.7625 65.843 48.4865 66.4337 49.2228 66.4337H53.0929C53.8292 66.4337 54.5532 65.843 54.7041 65.1218L55.939 59.2107C57.0559 58.8791 58.1253 58.4397 59.1326 57.8946L64.1651 61.1942C64.7794 61.5984 65.7102 61.5009 66.2294 60.9807L68.9659 58.2387C69.485 57.7185 69.5823 56.7879 69.1789 56.1702L65.9129 51.167C66.4776 50.141 66.9368 49.0508 67.2822 47.9088L73.0986 46.6901C73.8184 46.5388 74.4079 45.8134 74.4079 45.0756V41.1978C74.4079 40.462 73.8184 39.7345 73.0986 39.5832V39.5873ZM51.1589 52.3877C46.0623 52.3877 41.9296 48.2467 41.9296 43.1398C41.9296 38.0329 46.0623 33.8918 51.1589 33.8918C56.2555 33.8918 60.3882 38.0329 60.3882 43.1398C60.3882 48.2467 56.2555 52.3877 51.1589 52.3877Z" fill="#41CC96"/>
<path d="M51.1589 66.4336V73.667" stroke="#604B8C" stroke-width="2.86749" stroke-linecap="round" stroke-linejoin="round"/>
<path d="M60.4171 81.9967L51.1589 72.7197L41.9007 81.9967L51.1589 91.2736L60.4171 81.9967Z" stroke="#604B8C" stroke-width="2.86749" stroke-linecap="round" stroke-linejoin="round"/>
<path d="M51.1595 131.342C55.7392 131.342 59.4517 127.622 59.4517 123.033C59.4517 118.444 55.7392 114.724 51.1595 114.724C46.5798 114.724 42.8672 118.444 42.8672 123.033C42.8672 127.622 46.5798 131.342 51.1595 131.342Z" stroke="#604B8C" stroke-width="2.86749" stroke-linecap="round" stroke-linejoin="round"/>
<path d="M21.5823 95.373H7.33301V109.651H21.5823V95.373Z" stroke="#604B8C" stroke-width="2.86749" stroke-linecap="round" stroke-linejoin="round"/>
<path d="M101.31 95.373H74.406V109.651H101.31V95.373Z" stroke="#604B8C" stroke-width="2.86749" stroke-linecap="round" stroke-linejoin="round"/>
<path d="M66.9718 98.9453H44.6619" stroke="#604B8C" stroke-width="2.86749" stroke-linecap="round" stroke-linejoin="round"/>
<path d="M38.583 98.9453H33.5071" stroke="#604B8C" stroke-width="2.86749" stroke-linecap="round" stroke-linejoin="round"/>
<path d="M66.9718 106.083H44.6619" stroke="#604B8C" stroke-width="2.86749" stroke-linecap="round" stroke-linejoin="round"/>
<path d="M38.583 106.083H33.5071" stroke="#604B8C" stroke-width="2.86749" stroke-linecap="round" stroke-linejoin="round"/>
<path d="M29.2799 86.5605L24.7231 81.9966L29.2799 77.4307" stroke="#604B8C" stroke-width="2.86749" stroke-linecap="round" stroke-linejoin="round"/>
<path d="M77.596 86.5605L73.0393 81.9966L77.596 77.4307" stroke="#604B8C" stroke-width="2.86749" stroke-linecap="round" stroke-linejoin="round"/>
<path d="M77.5959 118.467L82.1506 123.033L77.5959 127.597" stroke="#604B8C" stroke-width="2.86749" stroke-linecap="round" stroke-linejoin="round"/>
<path d="M29.2795 118.467L33.8342 123.033L29.2795 127.597" stroke="#604B8C" stroke-width="2.86749" stroke-linecap="round" stroke-linejoin="round"/>
<path d="M29.2196 46.6925L35.036 47.9111C35.3793 49.0531 35.8406 50.1433 36.4053 51.1693L33.1392 56.1725C32.7359 56.7902 32.8331 57.7208 33.3523 58.241L36.0888 60.983C36.608 61.5033 37.5367 61.6007 38.1531 61.1965L43.1876 57.8969C44.1949 58.44 45.2643 58.8814 46.3812 59.211L47.6161 65.122C47.7671 65.8433 48.491 66.434 49.2274 66.434H53.0974C53.8337 66.434 54.5577 65.8433 54.7087 65.122L55.9435 59.211C57.0605 58.8793 58.1298 58.44 59.1371 57.8949L64.1696 61.1944C64.786 61.5986 65.7147 61.5012 66.2339 60.981L68.9704 58.2389C69.4896 57.7187 69.5868 56.7881 69.1834 56.1705L65.9174 51.1672C66.4821 50.1413 66.9413 49.0511 67.2867 47.9091L73.1031 46.6904C73.8229 46.5391 74.4124 45.8137 74.4124 45.0758V41.198C74.4124 40.4622 73.8229 39.7347 73.1031 39.5834L67.3529 38.3772C67.0157 37.1958 66.5565 36.0662 65.9857 35.0051L69.1855 30.1013C69.5888 29.4837 69.4916 28.5531 68.9725 28.0328L66.2359 25.2908C65.7168 24.7706 64.7881 24.6731 64.1717 25.0773L59.3171 28.2587C58.2436 27.6618 57.0977 27.181 55.8959 26.8307L54.7107 21.1518C54.5597 20.4305 53.8358 19.8398 53.0994 19.8398H49.2294C48.4931 19.8398 47.7691 20.4305 47.6181 21.1518L46.4329 26.8307C45.2312 27.1831 44.0853 27.6618 43.0118 28.2587L38.1572 25.0773C37.5408 24.6731 36.6121 24.7706 36.0929 25.2908L33.3564 28.0328C32.8372 28.5531 32.74 29.4837 33.1434 30.1013L36.3432 35.003C35.7703 36.0621 35.3131 37.1937 34.9739 38.3751L29.2217 39.5814C28.5019 39.7327 27.9124 40.4581 27.9124 41.1959V45.0738C27.9124 45.8095 28.5019 46.537 29.2217 46.6883L29.2196 46.6925Z" stroke="#604B8C" stroke-width="2.86749" stroke-linecap="round" stroke-linejoin="round"/>
<path d="M57.5917 36.5103C59.3168 38.1912 60.3882 40.5415 60.3882 43.1405C60.3882 48.2474 56.2555 52.3885 51.159 52.3885C46.0624 52.3885 41.9297 48.2474 41.9297 43.1405C41.9297 38.0336 46.0624 33.8926 51.159 33.8926C51.7547 33.8926 52.3379 33.9485 52.9047 34.0584" stroke="#604B8C" stroke-width="2.86749" stroke-linecap="round" stroke-linejoin="round"/>
</svg>
