<svg width="117" height="168" viewBox="0 0 117 168" fill="none" xmlns="http://www.w3.org/2000/svg">
<circle cx="103.549" cy="154.933" r="12.7444" fill="#23549A"/>
<path d="M0.483452 80.9989C-1.57767 73.1127 3.14161 65.0376 11.0243 62.9628L71.3053 47.096C79.188 45.0212 87.249 49.7323 89.3101 57.6185L104.404 115.372C106.465 123.258 101.746 131.333 93.8635 133.408L33.5824 149.275C25.6998 151.349 17.6388 146.638 15.5776 138.752L0.483452 80.9989Z" fill="#82A5D1"/>
<path d="M68.8465 108.758C68.8465 99.0901 69.2227 92.2406 71.3845 86.9291C77.3083 72.376 89.4835 69.3697 89.4835 51.5615C89.4835 33.1096 74.5796 18.1528 56.1929 18.1528H55.7647H55.3365C36.9498 18.1528 22.0459 33.1096 22.0459 51.5615C22.0459 70.0134 34.221 72.376 40.1448 86.9291C42.3066 92.2406 42.6828 99.0901 42.6828 108.758H68.8483H68.8465Z" fill="white"/>
<path d="M74.9113 47.0798H71.4094C71.0644 45.8619 70.5894 44.7015 69.9878 43.6194L72.4599 41.1385C73.1638 40.4322 73.1638 39.2752 72.4599 38.5689L68.7067 34.8005C68.0028 34.0942 66.8499 34.0942 66.1461 34.8005L63.674 37.2814C62.5939 36.6777 61.4376 36.201 60.2258 35.8548V32.3405C60.2258 31.3401 59.411 30.5225 58.4142 30.5225H53.1041C52.109 30.5225 51.2925 31.3401 51.2925 32.3405V35.8548C50.079 36.201 48.9226 36.6777 47.8443 37.2814L45.3722 34.8005C44.6683 34.0942 43.5155 34.0942 42.8116 34.8005L39.0566 38.5689C38.3528 39.2752 38.3528 40.4322 39.0566 41.1385L41.5288 43.6194C40.9272 44.7033 40.4522 45.8637 40.1072 47.0798H36.6053C35.6102 47.0798 34.7937 47.8975 34.7937 48.8978V54.2267C34.7937 55.2271 35.6085 56.0448 36.6053 56.0448H40.1072C40.4522 57.2626 40.9272 58.423 41.5288 59.5052L39.0566 61.9861C38.3528 62.6924 38.3528 63.8494 39.0566 64.5557L42.8116 68.324C43.5155 69.0304 44.6683 69.0304 45.3722 68.324L47.8443 65.8431C48.9244 66.4468 50.0807 66.9235 51.2925 67.2697V70.784C51.2925 71.7844 52.1073 72.6021 53.1041 72.6021H58.4142C59.4093 72.6021 60.2258 71.7844 60.2258 70.784V67.2697C61.4376 66.9235 62.5957 66.4468 63.674 65.8431L66.1461 68.324C66.8499 69.0304 68.0028 69.0304 68.7067 68.324L72.4599 64.5557C73.1638 63.8494 73.1638 62.6924 72.4599 61.9861L69.9878 59.5052C70.5894 58.4213 71.0644 57.2609 71.4094 56.0448H74.9113C75.9064 56.0448 76.7229 55.2271 76.7229 54.2267V48.8978C76.7229 47.8975 75.9081 47.0798 74.9113 47.0798ZM55.7583 58.423C51.9807 58.423 48.9209 55.3506 48.9209 51.5614C48.9209 47.7722 51.9825 44.6998 55.7583 44.6998C59.5341 44.6998 62.5957 47.7722 62.5957 51.5614C62.5957 55.3506 59.5341 58.423 55.7583 58.423Z" fill="#41CC96"/>
<path d="M68.8435 108.959C68.8435 102.473 69.0134 97.2569 69.7762 92.9214H42.1736C42.9381 97.2569 43.1063 102.474 43.1063 108.959V115.505C43.1063 117.214 44.5001 118.612 46.2025 118.612H65.7525C67.4549 118.612 68.8487 117.214 68.8487 115.505V108.959" fill="#D3E2EB"/>
<path d="M75.6394 79.2237C81.7729 70.5267 89.4771 65.7266 89.4771 51.5615C89.4771 33.1096 74.5732 18.1528 56.1865 18.1528H55.7583C37.3716 18.1528 22.4677 33.1096 22.4677 51.5615C22.4677 70.0134 34.6429 72.376 40.5666 86.9291C42.7284 92.2406 43.1046 99.0901 43.1046 108.758" stroke="#23549A" stroke-width="2.86749" stroke-linecap="round" stroke-linejoin="round"/>
<path d="M68.8401 108.758C68.8401 99.0896 69.2163 92.2402 71.3782 86.9287" stroke="#23549A" stroke-width="2.86749" stroke-linecap="round" stroke-linejoin="round"/>
<path d="M43.1031 108.758V115.305C43.1031 117.013 44.4969 118.412 46.1993 118.412H65.7493C67.4517 118.412 68.8455 117.013 68.8455 115.305V108.758" stroke="#23549A" stroke-width="2.86749" stroke-linecap="round" stroke-linejoin="round"/>
<path d="M39.4725 110.032H72.0436" stroke="#23549A" stroke-width="2.86749" stroke-linecap="round" stroke-linejoin="round"/>
<path d="M39.4725 101.515H72.0436" stroke="#23549A" stroke-width="2.86749" stroke-linecap="round" stroke-linejoin="round"/>
<path d="M39.4725 92.7207H72.0436" stroke="#23549A" stroke-width="2.86749" stroke-linecap="round" stroke-linejoin="round"/>
<path d="M52.3726 128.149C48.2397 126.854 45.2405 122.985 45.2405 118.411" stroke="#23549A" stroke-width="2.86749" stroke-linecap="round" stroke-linejoin="round"/>
<path d="M59.1447 128.149C63.2777 126.854 66.2768 122.985 66.2768 118.411" stroke="#23549A" stroke-width="2.86749" stroke-linecap="round" stroke-linejoin="round"/>
<path d="M14.5557 51.561H6.37305" stroke="#23549A" stroke-width="2.86749" stroke-linecap="round" stroke-linejoin="round"/>
<path d="M105.143 51.561H96.9598" stroke="#23549A" stroke-width="2.86749" stroke-linecap="round" stroke-linejoin="round"/>
<path d="M26.6231 80.7969L20.838 86.6042" stroke="#23549A" stroke-width="2.86749" stroke-linecap="round" stroke-linejoin="round"/>
<path d="M90.6783 16.5166L84.8915 22.3222" stroke="#23549A" stroke-width="2.86749" stroke-linecap="round" stroke-linejoin="round"/>
<path d="M26.6233 22.3222L20.8383 16.5166" stroke="#23549A" stroke-width="2.86749" stroke-linecap="round" stroke-linejoin="round"/>
<path d="M90.6783 86.6042L84.8915 80.7969" stroke="#23549A" stroke-width="2.86749" stroke-linecap="round" stroke-linejoin="round"/>
<path d="M55.7585 2V10.2117" stroke="#23549A" stroke-width="2.86749" stroke-linecap="round" stroke-linejoin="round"/>
<path d="M55.7583 58.4234C59.5345 58.4234 62.5957 55.3514 62.5957 51.5618C62.5957 47.7722 59.5345 44.7002 55.7583 44.7002C51.9821 44.7002 48.9209 47.7722 48.9209 51.5618C48.9209 55.3514 51.9821 58.4234 55.7583 58.4234Z" stroke="#23549A" stroke-width="2.86749" stroke-linecap="round" stroke-linejoin="round"/>
<path d="M74.9124 47.0798H71.4105C71.0655 45.8619 70.5905 44.7015 69.9889 43.6194L72.4611 41.1385C73.1649 40.4322 73.1649 39.2752 72.4611 38.5689L68.7061 34.8005C68.0022 34.0942 66.8494 34.0942 66.1455 34.8005L63.6734 37.2814C62.5933 36.6777 61.437 36.201 60.2252 35.8548V32.3405C60.2252 31.3401 59.4104 30.5225 58.4136 30.5225H53.1035C52.1067 30.5225 51.2919 31.3401 51.2919 32.3405V35.8548C50.0784 36.201 48.9221 36.6777 47.8437 37.2814L45.3716 34.8005C44.6678 34.0942 43.5149 34.0942 42.8111 34.8005L39.0561 38.5689C38.3522 39.2752 38.3522 40.4322 39.0561 41.1385L41.5282 43.6194C40.9266 44.7033 40.4516 45.8637 40.1066 47.0798H36.6047C35.6079 47.0798 34.7931 47.8975 34.7931 48.8978V54.2267C34.7931 55.2271 35.6079 56.0448 36.6047 56.0448H40.1066C40.4516 57.2626 40.9266 58.423 41.5282 59.5052L39.0561 61.9861C38.3522 62.6924 38.3522 63.8494 39.0561 64.5557L42.8111 68.324C43.5149 69.0304 44.6678 69.0304 45.3716 68.324L47.8437 65.8431C48.9238 66.4468 50.0801 66.9235 51.2919 67.2697V70.784C51.2919 71.7844 52.1067 72.6021 53.1035 72.6021H58.4136C59.4104 72.6021 60.2252 71.7844 60.2252 70.784V67.2697C61.4388 66.9235 62.5951 66.4468 63.6734 65.8431L66.1455 68.324C66.8494 69.0304 68.0022 69.0304 68.7061 68.324L72.4611 64.5557C73.1649 63.8494 73.1649 62.6924 72.4611 61.9861L69.9889 59.5052C70.5905 58.4213 71.0655 57.2609 71.4105 56.0448H74.9124C75.9092 56.0448 76.724 55.2271 76.724 54.2267V48.8978C76.724 47.8975 75.9092 47.0798 74.9124 47.0798Z" stroke="#23549A" stroke-width="2.86749" stroke-linecap="round" stroke-linejoin="round"/>
</svg>
