<svg width="107" height="117" viewBox="0 0 107 117" fill="none" xmlns="http://www.w3.org/2000/svg">
<path d="M1.45611 48.0966C-0.605019 40.2103 4.11426 32.1353 11.9969 30.0605L72.278 14.1937C80.1606 12.1188 88.2216 16.8299 90.2828 24.7162L105.377 82.4693C107.438 90.3555 102.719 98.4306 94.8361 100.505L34.5551 116.372C26.6724 118.447 18.6114 113.736 16.5503 105.85L1.45611 48.0966Z" fill="#604B8C"/>
<circle cx="8.93792" cy="8.92474" r="7.96526" fill="#BEEFD9"/>
<path d="M90.284 78.0593L87.9004 93.7314C87.4616 96.6165 84.7409 98.6189 81.8559 98.1801L28.524 90.0687C25.6389 89.6299 23.6365 86.9093 24.0753 84.0242L35.9105 6.20754C36.3493 3.32246 39.07 1.3201 41.9551 1.7589L95.287 9.87021C98.1721 10.309 100.174 13.0297 99.7356 15.9148L93.6632 55.8409" fill="#BEEFD9"/>
<path d="M62.7555 45.2138C70.77 46.4328 78.2551 40.9239 79.474 32.9095C80.693 24.895 75.1841 17.4099 67.1696 16.1909C59.1552 14.972 51.6701 20.4809 50.4511 28.4953C49.2322 36.5098 54.7411 43.9949 62.7555 45.2138Z" fill="white"/>
<path d="M64.9129 31.0289C67.8388 31.4739 70.5715 29.4627 71.0165 26.5368C71.4615 23.6109 69.4503 20.8782 66.5244 20.4332C63.5985 19.9882 60.8658 21.9994 60.4208 24.9253C59.9758 27.8512 61.987 30.5839 64.9129 31.0289Z" fill="#CCBCF1"/>
<path d="M62.7547 45.2133C66.4251 45.7716 69.981 44.9152 72.8782 43.0576C72.0057 38.9673 68.6899 35.6461 64.311 34.9801C59.9322 34.3141 55.7774 36.4973 53.7298 40.1453C55.9437 42.7802 59.0842 44.6551 62.7547 45.2133Z" fill="#CCBCF1"/>
<path d="M99.2823 61.4663L85.9878 49.9033L83.97 67.4066L88.4326 65.6748L91.1151 72.5933L97.5043 70.115L94.82 63.1962L99.2823 61.4663Z" fill="#41CC96"/>
<path d="M62.755 45.2138C70.7695 46.4328 78.2546 40.9239 79.4735 32.9095C80.6925 24.895 75.1836 17.4099 67.1692 16.1909C59.1547 14.972 51.6696 20.4809 50.4507 28.4953C49.2317 36.5098 54.7406 43.9949 62.755 45.2138Z" stroke="#604B8C" stroke-width="2.86456" stroke-linecap="round" stroke-linejoin="round"/>
<path d="M64.9124 31.0289C67.8383 31.4739 70.571 29.4627 71.016 26.5368C71.461 23.6109 69.4499 20.8782 66.5239 20.4332C63.598 19.9882 60.8653 21.9994 60.4203 24.9253C59.9753 27.8512 61.9865 30.5839 64.9124 31.0289Z" stroke="#604B8C" stroke-width="2.86456" stroke-linecap="round" stroke-linejoin="round"/>
<path d="M69.9095 37.7346C68.4236 36.3099 66.5 35.3131 64.3105 34.9801C59.9317 34.3141 55.7769 36.4973 53.7293 40.1453" stroke="#604B8C" stroke-width="2.86456" stroke-linecap="round" stroke-linejoin="round"/>
<path d="M50.2085 54.3213L75.4438 58.1594" stroke="#604B8C" stroke-width="2.86456" stroke-linecap="round" stroke-linejoin="round"/>
<path d="M44.8211 53.5018L42.4175 53.1362" stroke="#604B8C" stroke-width="2.86456" stroke-linecap="round" stroke-linejoin="round"/>
<path d="M49.1074 61.563L74.3427 65.4011" stroke="#604B8C" stroke-width="2.86456" stroke-linecap="round" stroke-linejoin="round"/>
<path d="M43.72 60.7435L41.3164 60.3779" stroke="#604B8C" stroke-width="2.86456" stroke-linecap="round" stroke-linejoin="round"/>
<path d="M48.0054 68.8047L73.2407 72.6428" stroke="#604B8C" stroke-width="2.86456" stroke-linecap="round" stroke-linejoin="round"/>
<path d="M42.6185 67.9857L40.2148 67.6201" stroke="#604B8C" stroke-width="2.86456" stroke-linecap="round" stroke-linejoin="round"/>
<path d="M62.2065 78.375L72.1396 79.8857" stroke="#604B8C" stroke-width="2.86456" stroke-linecap="round" stroke-linejoin="round"/>
<path d="M34.8136 13.4028L35.9081 6.20656C36.3469 3.32148 39.0676 1.31913 41.9527 1.75792L95.2846 9.86923C98.1696 10.308 100.172 13.0287 99.7332 15.9138L93.6608 55.84" stroke="#604B8C" stroke-width="2.86456" stroke-linecap="round" stroke-linejoin="round"/>
<path d="M90.2828 78.0608L87.8993 93.7329C87.4605 96.6179 84.7398 98.6203 81.8547 98.1815L28.5228 90.0702C25.6377 89.6314 23.6354 86.9107 24.0741 84.0256L33.9727 18.9429" stroke="#604B8C" stroke-width="2.86456" stroke-linecap="round" stroke-linejoin="round"/>
<path d="M99.2818 61.4663L85.9873 49.9033L83.9695 67.4066L88.4321 65.6748L91.1146 72.5933L97.5038 70.115L94.8195 63.1962L99.2818 61.4663Z" stroke="#604B8C" stroke-width="2.86456" stroke-linecap="round" stroke-linejoin="round"/>
</svg>
