<svg width="135" height="129" viewBox="0 0 135 129" fill="none" xmlns="http://www.w3.org/2000/svg">
<path d="M17.3865 54.1903C15.3254 46.3041 20.0447 38.229 27.9273 36.1542L88.2084 20.2874C96.091 18.2126 104.152 22.9237 106.213 30.8099L121.307 88.563C123.368 96.4493 118.649 104.524 110.767 106.599L50.4855 122.466C42.6029 124.541 34.5418 119.83 32.4807 111.943L17.3865 54.1903Z" fill="#83EEA7"/>
<circle cx="11.3275" cy="117.771" r="10.3548" fill="#CCBDF1"/>
<path d="M35.0088 74.9464V14.1989C35.0088 12.2327 36.6173 10.626 38.5817 10.626H124.624C126.59 10.626 128.197 12.2345 128.197 14.1989V74.9464" fill="white"/>
<path d="M47.3111 37.383C49.3499 37.383 51.0026 35.7303 51.0026 33.6915C51.0026 31.6527 49.3499 30 47.3111 30C45.2724 30 43.6196 31.6527 43.6196 33.6915C43.6196 35.7303 45.2724 37.383 47.3111 37.383Z" fill="#CCBDF1"/>
<path d="M91.6925 69.258C93.7312 69.258 95.384 67.6053 95.384 65.5665C95.384 63.5277 93.7312 61.875 91.6925 61.875C89.6537 61.875 88.001 63.5277 88.001 65.5665C88.001 67.6053 89.6537 69.258 91.6925 69.258Z" fill="#CCBDF1"/>
<path d="M58.2409 51.9042L55.2175 50.219V34.7865L69.0642 27.0703L82.9091 34.7865V50.219L69.0642 57.9369L61.9254 53.9576" fill="#41CC96"/>
<path d="M55.2175 34.3373L69.0642 42.0535L82.9091 34.3373L69.0642 26.6211L55.2175 34.3373Z" fill="#BEEFD9"/>
<path d="M91.6526 10.6249V4.06183C91.6526 3.07964 90.8484 2.27539 89.8662 2.27539H73.3399C72.3577 2.27539 71.5535 3.07964 71.5535 4.06183V10.6231" fill="#CCBDF1"/>
<path d="M65.0083 94.6875L62.9741 102.081H100.201L98.1045 94.6875H65.0083Z" fill="#CCBDF1"/>
<path d="M130.273 74.9473H32.931C31.1177 74.9473 29.6477 76.4172 29.6477 78.2305V80.3746C29.6477 82.1879 31.1177 83.6579 32.931 83.6579H130.273C132.086 83.6579 133.556 82.1879 133.556 80.3746V78.2305C133.556 76.4172 132.086 74.9473 130.273 74.9473Z" fill="#CCBDF1"/>
<path d="M67.5596 83.6562L60.5238 114.057H49.0271L56.0629 83.6562" fill="#CCBDF1"/>
<path d="M95.644 83.6562L102.68 114.057H114.177L107.141 83.6562" fill="#CCBDF1"/>
<path d="M129.201 74.9473H34.0021C31.5973 74.9473 29.6477 76.8968 29.6477 79.3017V79.3035C29.6477 81.7083 31.5973 83.6579 34.0021 83.6579H129.201C131.606 83.6579 133.556 81.7083 133.556 79.3035V79.3017C133.556 76.8968 131.606 74.9473 129.201 74.9473Z" stroke="#604B8C" stroke-width="2.86749" stroke-linecap="round" stroke-linejoin="round"/>
<path d="M119.366 10.626H124.622C126.588 10.626 128.195 12.2345 128.195 14.1989V74.9464" stroke="#604B8C" stroke-width="2.86749" stroke-linecap="round" stroke-linejoin="round"/>
<path d="M35.0088 74.9464V14.1989C35.0088 12.2327 36.6173 10.626 38.5817 10.626H113.673" stroke="#604B8C" stroke-width="2.86749" stroke-linecap="round" stroke-linejoin="round"/>
<path d="M91.6526 10.6249V4.06183C91.6526 3.07964 90.8484 2.27539 89.8662 2.27539H73.3399C72.3577 2.27539 71.5535 3.07964 71.5535 4.06183V6.82697" stroke="#604B8C" stroke-width="2.86749" stroke-linecap="round" stroke-linejoin="round"/>
<path d="M67.5616 83.6572L60.7317 113.172C60.6113 113.692 60.149 114.06 59.6151 114.06H50.4719C49.7339 114.06 49.1896 113.374 49.3553 112.655L56.0649 83.659" stroke="#604B8C" stroke-width="2.86749" stroke-linecap="round" stroke-linejoin="round"/>
<path d="M95.6453 83.6572L102.475 113.172C102.596 113.692 103.058 114.06 103.592 114.06H112.735C113.473 114.06 114.017 113.374 113.852 112.655L107.142 83.659" stroke="#604B8C" stroke-width="2.86749" stroke-linecap="round" stroke-linejoin="round"/>
<path d="M65.009 94.6865H98.1052" stroke="#604B8C" stroke-width="2.86749" stroke-linecap="round" stroke-linejoin="round"/>
<path d="M76.9211 102.081H99.5046" stroke="#604B8C" stroke-width="2.86749" stroke-linecap="round" stroke-linejoin="round"/>
<path d="M63.6726 102.081H71.5528" stroke="#604B8C" stroke-width="2.86749" stroke-linecap="round" stroke-linejoin="round"/>
<path d="M58.2409 51.9042L55.2175 50.219V34.7865L69.0642 27.0703L82.9091 34.7865V50.219L69.0642 57.9369L61.9254 53.9576" stroke="#604B8C" stroke-width="2.86749" stroke-linecap="round" stroke-linejoin="round"/>
<path d="M55.2175 34.7861L69.0642 42.5024L82.9091 34.7861" stroke="#604B8C" stroke-width="2.86749" stroke-linecap="round" stroke-linejoin="round"/>
<path d="M69.0649 57.9359V42.5977" stroke="#604B8C" stroke-width="2.86749" stroke-linecap="round" stroke-linejoin="round"/>
<path d="M74.6756 19.6289C84.8394 22.1411 92.3742 31.3193 92.3742 42.2577C92.3742 55.1309 81.9382 65.5669 69.065 65.5669C56.1919 65.5669 45.7559 55.1309 45.7559 42.2577C45.7559 40.5358 45.9425 38.8575 46.2967 37.2421" stroke="#604B8C" stroke-width="2.86749" stroke-linecap="round" stroke-linejoin="round"/>
<circle cx="69.0635" cy="18.95" r="1.34942" fill="#604B8C"/>
<path d="M47.3111 37.383C49.3499 37.383 51.0026 35.7303 51.0026 33.6915C51.0026 31.6527 49.3499 30 47.3111 30C45.2724 30 43.6196 31.6527 43.6196 33.6915C43.6196 35.7303 45.2724 37.383 47.3111 37.383Z" stroke="#604B8C" stroke-width="2.86749" stroke-linecap="round" stroke-linejoin="round"/>
<path d="M91.6925 69.258C93.7312 69.258 95.384 67.6053 95.384 65.5665C95.384 63.5277 93.7312 61.875 91.6925 61.875C89.6537 61.875 88.001 63.5277 88.001 65.5665C88.001 67.6053 89.6537 69.258 91.6925 69.258Z" stroke="#604B8C" stroke-width="2.86749" stroke-linecap="round" stroke-linejoin="round"/>
<path d="M100.201 31.8789H110.813" stroke="#604B8C" stroke-width="2.86749" stroke-linecap="round" stroke-linejoin="round"/>
<path d="M115.243 31.8789H118.856" stroke="#604B8C" stroke-width="2.86749" stroke-linecap="round" stroke-linejoin="round"/>
<path d="M100.201 38.6455H119.365" stroke="#604B8C" stroke-width="2.86749" stroke-linecap="round" stroke-linejoin="round"/>
<path d="M100.201 45.4092H119.365" stroke="#604B8C" stroke-width="2.86749" stroke-linecap="round" stroke-linejoin="round"/>
<path d="M100.201 52.1738H109.784" stroke="#604B8C" stroke-width="2.86749" stroke-linecap="round" stroke-linejoin="round"/>
</svg>
